G04 (created by PCBNEW (2013-jul-07)-stable) date wo 20 nov 2013 00:02:11 CET*
%MOIN*%
G04 Gerber Fmt 3.4, Leading zero omitted, Abs format*
%FSLAX34Y34*%
G01*
G70*
G90*
G04 APERTURE LIST*
%ADD10C,0.00393701*%
%ADD11C,0.005*%
%ADD12C,0.008*%
%ADD13C,0.012*%
%ADD14C,0.00590551*%
%ADD15C,0.01*%
G04 APERTURE END LIST*
G54D10*
G54D11*
X10250Y-18611D02*
X10326Y-18611D01*
X10364Y-18630D01*
X10402Y-18669D01*
X10421Y-18745D01*
X10421Y-18878D01*
X10402Y-18954D01*
X10364Y-18992D01*
X10326Y-19011D01*
X10250Y-19011D01*
X10211Y-18992D01*
X10173Y-18954D01*
X10154Y-18878D01*
X10154Y-18745D01*
X10173Y-18669D01*
X10211Y-18630D01*
X10250Y-18611D01*
X10592Y-18745D02*
X10592Y-19145D01*
X10592Y-18764D02*
X10630Y-18745D01*
X10707Y-18745D01*
X10745Y-18764D01*
X10764Y-18783D01*
X10783Y-18821D01*
X10783Y-18935D01*
X10764Y-18973D01*
X10745Y-18992D01*
X10707Y-19011D01*
X10630Y-19011D01*
X10592Y-18992D01*
X11107Y-18992D02*
X11069Y-19011D01*
X10992Y-19011D01*
X10954Y-18992D01*
X10935Y-18954D01*
X10935Y-18802D01*
X10954Y-18764D01*
X10992Y-18745D01*
X11069Y-18745D01*
X11107Y-18764D01*
X11126Y-18802D01*
X11126Y-18840D01*
X10935Y-18878D01*
X11297Y-18745D02*
X11297Y-19011D01*
X11297Y-18783D02*
X11316Y-18764D01*
X11354Y-18745D01*
X11411Y-18745D01*
X11450Y-18764D01*
X11469Y-18802D01*
X11469Y-19011D01*
X11602Y-18745D02*
X11754Y-18745D01*
X11659Y-18611D02*
X11659Y-18954D01*
X11678Y-18992D01*
X11716Y-19011D01*
X11754Y-19011D01*
X11888Y-19011D02*
X11888Y-18745D01*
X11888Y-18611D02*
X11869Y-18630D01*
X11888Y-18650D01*
X11907Y-18630D01*
X11888Y-18611D01*
X11888Y-18650D01*
X12135Y-19011D02*
X12097Y-18992D01*
X12078Y-18954D01*
X12078Y-18611D01*
X12230Y-18745D02*
X12383Y-18745D01*
X12288Y-18611D02*
X12288Y-18954D01*
X12307Y-18992D01*
X12345Y-19011D01*
X12383Y-19011D01*
X10459Y-19621D02*
X10459Y-19355D01*
X10459Y-19431D02*
X10478Y-19393D01*
X10497Y-19374D01*
X10535Y-19355D01*
X10573Y-19355D01*
X10859Y-19602D02*
X10821Y-19621D01*
X10745Y-19621D01*
X10707Y-19602D01*
X10688Y-19564D01*
X10688Y-19412D01*
X10707Y-19374D01*
X10745Y-19355D01*
X10821Y-19355D01*
X10859Y-19374D01*
X10878Y-19412D01*
X10878Y-19450D01*
X10688Y-19488D01*
X11011Y-19355D02*
X11107Y-19621D01*
X11202Y-19355D01*
X11354Y-19583D02*
X11373Y-19602D01*
X11354Y-19621D01*
X11335Y-19602D01*
X11354Y-19583D01*
X11354Y-19621D01*
X11830Y-19260D02*
X11850Y-19240D01*
X11888Y-19221D01*
X11983Y-19221D01*
X12021Y-19240D01*
X12040Y-19260D01*
X12059Y-19298D01*
X12059Y-19336D01*
X12040Y-19393D01*
X11811Y-19621D01*
X12059Y-19621D01*
X13928Y-22135D02*
X13728Y-22135D01*
X13900Y-22135D02*
X13914Y-22145D01*
X13928Y-22164D01*
X13928Y-22192D01*
X13914Y-22211D01*
X13885Y-22221D01*
X13728Y-22221D01*
X13728Y-22430D02*
X13871Y-22364D01*
X13728Y-22316D02*
X14028Y-22316D01*
X14028Y-22392D01*
X14014Y-22411D01*
X14000Y-22421D01*
X13971Y-22430D01*
X13928Y-22430D01*
X13900Y-22421D01*
X13885Y-22411D01*
X13871Y-22392D01*
X13871Y-22316D01*
X13885Y-22583D02*
X13885Y-22516D01*
X13728Y-22516D02*
X14028Y-22516D01*
X14028Y-22611D01*
X14000Y-22678D02*
X14014Y-22688D01*
X14028Y-22707D01*
X14028Y-22754D01*
X14014Y-22773D01*
X14000Y-22783D01*
X13971Y-22792D01*
X13942Y-22792D01*
X13900Y-22783D01*
X13728Y-22669D01*
X13728Y-22792D01*
X13928Y-22964D02*
X13728Y-22964D01*
X14042Y-22916D02*
X13828Y-22869D01*
X13828Y-22992D01*
X13728Y-23164D02*
X13728Y-23069D01*
X14028Y-23069D01*
X14028Y-23269D02*
X14028Y-23288D01*
X14014Y-23307D01*
X14000Y-23316D01*
X13971Y-23326D01*
X13914Y-23335D01*
X13842Y-23335D01*
X13785Y-23326D01*
X13757Y-23316D01*
X13742Y-23307D01*
X13728Y-23288D01*
X13728Y-23269D01*
X13742Y-23250D01*
X13757Y-23240D01*
X13785Y-23230D01*
X13842Y-23221D01*
X13914Y-23221D01*
X13971Y-23230D01*
X14000Y-23240D01*
X14014Y-23250D01*
X14028Y-23269D01*
X13728Y-23526D02*
X13728Y-23411D01*
X13728Y-23469D02*
X14028Y-23469D01*
X13985Y-23450D01*
X13957Y-23430D01*
X13942Y-23411D01*
X13842Y-23611D02*
X13842Y-23764D01*
X13728Y-23688D02*
X13957Y-23688D01*
X21126Y-22485D02*
X21221Y-22485D01*
X21107Y-22571D02*
X21173Y-22271D01*
X21240Y-22571D01*
X21307Y-22571D02*
X21307Y-22371D01*
X21307Y-22428D02*
X21316Y-22400D01*
X21326Y-22385D01*
X21345Y-22371D01*
X21364Y-22371D01*
X21516Y-22571D02*
X21516Y-22271D01*
X21516Y-22557D02*
X21497Y-22571D01*
X21459Y-22571D01*
X21440Y-22557D01*
X21430Y-22542D01*
X21421Y-22514D01*
X21421Y-22428D01*
X21430Y-22400D01*
X21440Y-22385D01*
X21459Y-22371D01*
X21497Y-22371D01*
X21516Y-22385D01*
X21697Y-22371D02*
X21697Y-22571D01*
X21611Y-22371D02*
X21611Y-22528D01*
X21621Y-22557D01*
X21640Y-22571D01*
X21669Y-22571D01*
X21688Y-22557D01*
X21697Y-22542D01*
X21792Y-22571D02*
X21792Y-22371D01*
X21792Y-22271D02*
X21783Y-22285D01*
X21792Y-22300D01*
X21802Y-22285D01*
X21792Y-22271D01*
X21792Y-22300D01*
X21888Y-22371D02*
X21888Y-22571D01*
X21888Y-22400D02*
X21897Y-22385D01*
X21916Y-22371D01*
X21945Y-22371D01*
X21964Y-22385D01*
X21973Y-22414D01*
X21973Y-22571D01*
X22097Y-22571D02*
X22078Y-22557D01*
X22069Y-22542D01*
X22059Y-22514D01*
X22059Y-22428D01*
X22069Y-22400D01*
X22078Y-22385D01*
X22097Y-22371D01*
X22126Y-22371D01*
X22145Y-22385D01*
X22154Y-22400D01*
X22164Y-22428D01*
X22164Y-22514D01*
X22154Y-22542D01*
X22145Y-22557D01*
X22126Y-22571D01*
X22097Y-22571D01*
X22402Y-22571D02*
X22402Y-22271D01*
X22478Y-22271D01*
X22497Y-22285D01*
X22507Y-22300D01*
X22516Y-22328D01*
X22516Y-22371D01*
X22507Y-22400D01*
X22497Y-22414D01*
X22478Y-22428D01*
X22402Y-22428D01*
X22602Y-22571D02*
X22602Y-22371D01*
X22602Y-22428D02*
X22611Y-22400D01*
X22621Y-22385D01*
X22640Y-22371D01*
X22659Y-22371D01*
X22754Y-22571D02*
X22735Y-22557D01*
X22726Y-22542D01*
X22716Y-22514D01*
X22716Y-22428D01*
X22726Y-22400D01*
X22735Y-22385D01*
X22754Y-22371D01*
X22783Y-22371D01*
X22802Y-22385D01*
X22811Y-22400D01*
X22821Y-22428D01*
X22821Y-22514D01*
X22811Y-22542D01*
X22802Y-22557D01*
X22783Y-22571D01*
X22754Y-22571D01*
X23059Y-22571D02*
X23059Y-22271D01*
X23126Y-22485D01*
X23192Y-22271D01*
X23192Y-22571D01*
X23288Y-22571D02*
X23288Y-22371D01*
X23288Y-22271D02*
X23278Y-22285D01*
X23288Y-22300D01*
X23297Y-22285D01*
X23288Y-22271D01*
X23288Y-22300D01*
X23383Y-22371D02*
X23383Y-22571D01*
X23383Y-22400D02*
X23392Y-22385D01*
X23411Y-22371D01*
X23440Y-22371D01*
X23459Y-22385D01*
X23469Y-22414D01*
X23469Y-22571D01*
X23564Y-22571D02*
X23564Y-22371D01*
X23564Y-22271D02*
X23554Y-22285D01*
X23564Y-22300D01*
X23573Y-22285D01*
X23564Y-22271D01*
X23564Y-22300D01*
X27711Y-26571D02*
X27645Y-26428D01*
X27597Y-26571D02*
X27597Y-26271D01*
X27673Y-26271D01*
X27692Y-26285D01*
X27702Y-26300D01*
X27711Y-26328D01*
X27711Y-26371D01*
X27702Y-26400D01*
X27692Y-26414D01*
X27673Y-26428D01*
X27597Y-26428D01*
X27788Y-26485D02*
X27883Y-26485D01*
X27769Y-26571D02*
X27835Y-26271D01*
X27902Y-26571D01*
X27950Y-26271D02*
X27997Y-26571D01*
X28035Y-26357D01*
X28073Y-26571D01*
X28121Y-26271D01*
X26697Y-26285D02*
X26678Y-26271D01*
X26650Y-26271D01*
X26621Y-26285D01*
X26602Y-26314D01*
X26592Y-26342D01*
X26583Y-26400D01*
X26583Y-26442D01*
X26592Y-26500D01*
X26602Y-26528D01*
X26621Y-26557D01*
X26650Y-26571D01*
X26669Y-26571D01*
X26697Y-26557D01*
X26707Y-26542D01*
X26707Y-26442D01*
X26669Y-26442D01*
X26792Y-26571D02*
X26792Y-26271D01*
X26907Y-26571D01*
X26907Y-26271D01*
X27002Y-26571D02*
X27002Y-26271D01*
X27050Y-26271D01*
X27078Y-26285D01*
X27097Y-26314D01*
X27107Y-26342D01*
X27116Y-26400D01*
X27116Y-26442D01*
X27107Y-26500D01*
X27097Y-26528D01*
X27078Y-26557D01*
X27050Y-26571D01*
X27002Y-26571D01*
X25740Y-26571D02*
X25673Y-26428D01*
X25626Y-26571D02*
X25626Y-26271D01*
X25702Y-26271D01*
X25721Y-26285D01*
X25730Y-26300D01*
X25740Y-26328D01*
X25740Y-26371D01*
X25730Y-26400D01*
X25721Y-26414D01*
X25702Y-26428D01*
X25626Y-26428D01*
X25816Y-26557D02*
X25845Y-26571D01*
X25892Y-26571D01*
X25911Y-26557D01*
X25921Y-26542D01*
X25930Y-26514D01*
X25930Y-26485D01*
X25921Y-26457D01*
X25911Y-26442D01*
X25892Y-26428D01*
X25854Y-26414D01*
X25835Y-26400D01*
X25826Y-26385D01*
X25816Y-26357D01*
X25816Y-26328D01*
X25826Y-26300D01*
X25835Y-26285D01*
X25854Y-26271D01*
X25902Y-26271D01*
X25930Y-26285D01*
X25988Y-26271D02*
X26102Y-26271D01*
X26045Y-26571D02*
X26045Y-26271D01*
X24583Y-26271D02*
X24650Y-26571D01*
X24716Y-26271D01*
X24897Y-26542D02*
X24888Y-26557D01*
X24859Y-26571D01*
X24840Y-26571D01*
X24811Y-26557D01*
X24792Y-26528D01*
X24783Y-26500D01*
X24773Y-26442D01*
X24773Y-26400D01*
X24783Y-26342D01*
X24792Y-26314D01*
X24811Y-26285D01*
X24840Y-26271D01*
X24859Y-26271D01*
X24888Y-26285D01*
X24897Y-26300D01*
X25097Y-26542D02*
X25088Y-26557D01*
X25059Y-26571D01*
X25040Y-26571D01*
X25011Y-26557D01*
X24992Y-26528D01*
X24983Y-26500D01*
X24973Y-26442D01*
X24973Y-26400D01*
X24983Y-26342D01*
X24992Y-26314D01*
X25011Y-26285D01*
X25040Y-26271D01*
X25059Y-26271D01*
X25088Y-26285D01*
X25097Y-26300D01*
X23707Y-26485D02*
X23802Y-26485D01*
X23688Y-26571D02*
X23754Y-26271D01*
X23821Y-26571D01*
X23869Y-26271D02*
X23992Y-26271D01*
X23926Y-26385D01*
X23954Y-26385D01*
X23973Y-26400D01*
X23983Y-26414D01*
X23992Y-26442D01*
X23992Y-26514D01*
X23983Y-26542D01*
X23973Y-26557D01*
X23954Y-26571D01*
X23897Y-26571D01*
X23878Y-26557D01*
X23869Y-26542D01*
X22707Y-26485D02*
X22802Y-26485D01*
X22688Y-26571D02*
X22754Y-26271D01*
X22821Y-26571D01*
X22878Y-26300D02*
X22888Y-26285D01*
X22907Y-26271D01*
X22954Y-26271D01*
X22973Y-26285D01*
X22983Y-26300D01*
X22992Y-26328D01*
X22992Y-26357D01*
X22983Y-26400D01*
X22869Y-26571D01*
X22992Y-26571D01*
X21707Y-26485D02*
X21802Y-26485D01*
X21688Y-26571D02*
X21754Y-26271D01*
X21821Y-26571D01*
X21992Y-26571D02*
X21878Y-26571D01*
X21935Y-26571D02*
X21935Y-26271D01*
X21916Y-26314D01*
X21897Y-26342D01*
X21878Y-26357D01*
X20707Y-26485D02*
X20802Y-26485D01*
X20688Y-26571D02*
X20754Y-26271D01*
X20821Y-26571D01*
X20926Y-26271D02*
X20945Y-26271D01*
X20964Y-26285D01*
X20973Y-26300D01*
X20983Y-26328D01*
X20992Y-26385D01*
X20992Y-26457D01*
X20983Y-26514D01*
X20973Y-26542D01*
X20964Y-26557D01*
X20945Y-26571D01*
X20926Y-26571D01*
X20907Y-26557D01*
X20897Y-26542D01*
X20888Y-26514D01*
X20878Y-26457D01*
X20878Y-26385D01*
X20888Y-26328D01*
X20897Y-26300D01*
X20907Y-26285D01*
X20926Y-26271D01*
X19811Y-26571D02*
X19697Y-26571D01*
X19754Y-26571D02*
X19754Y-26271D01*
X19735Y-26314D01*
X19716Y-26342D01*
X19697Y-26357D01*
X19878Y-26271D02*
X20002Y-26271D01*
X19935Y-26385D01*
X19964Y-26385D01*
X19983Y-26400D01*
X19992Y-26414D01*
X20002Y-26442D01*
X20002Y-26514D01*
X19992Y-26542D01*
X19983Y-26557D01*
X19964Y-26571D01*
X19907Y-26571D01*
X19888Y-26557D01*
X19878Y-26542D01*
X18811Y-26571D02*
X18697Y-26571D01*
X18754Y-26571D02*
X18754Y-26271D01*
X18735Y-26314D01*
X18716Y-26342D01*
X18697Y-26357D01*
X18888Y-26300D02*
X18897Y-26285D01*
X18916Y-26271D01*
X18964Y-26271D01*
X18983Y-26285D01*
X18992Y-26300D01*
X19002Y-26328D01*
X19002Y-26357D01*
X18992Y-26400D01*
X18878Y-26571D01*
X19002Y-26571D01*
X17811Y-26571D02*
X17697Y-26571D01*
X17754Y-26571D02*
X17754Y-26271D01*
X17735Y-26314D01*
X17716Y-26342D01*
X17697Y-26357D01*
X18002Y-26571D02*
X17888Y-26571D01*
X17945Y-26571D02*
X17945Y-26271D01*
X17926Y-26314D01*
X17907Y-26342D01*
X17888Y-26357D01*
X16811Y-26571D02*
X16697Y-26571D01*
X16754Y-26571D02*
X16754Y-26271D01*
X16735Y-26314D01*
X16716Y-26342D01*
X16697Y-26357D01*
X16935Y-26271D02*
X16954Y-26271D01*
X16973Y-26285D01*
X16983Y-26300D01*
X16992Y-26328D01*
X17002Y-26385D01*
X17002Y-26457D01*
X16992Y-26514D01*
X16983Y-26542D01*
X16973Y-26557D01*
X16954Y-26571D01*
X16935Y-26571D01*
X16916Y-26557D01*
X16907Y-26542D01*
X16897Y-26514D01*
X16888Y-26457D01*
X16888Y-26385D01*
X16897Y-26328D01*
X16907Y-26300D01*
X16916Y-26285D01*
X16935Y-26271D01*
X27659Y-18371D02*
X27678Y-18371D01*
X27697Y-18385D01*
X27707Y-18400D01*
X27716Y-18428D01*
X27726Y-18485D01*
X27726Y-18557D01*
X27716Y-18614D01*
X27707Y-18642D01*
X27697Y-18657D01*
X27678Y-18671D01*
X27659Y-18671D01*
X27640Y-18657D01*
X27630Y-18642D01*
X27621Y-18614D01*
X27611Y-18557D01*
X27611Y-18485D01*
X27621Y-18428D01*
X27630Y-18400D01*
X27640Y-18385D01*
X27659Y-18371D01*
X27954Y-18357D02*
X27783Y-18742D01*
X27992Y-18371D02*
X28107Y-18371D01*
X28050Y-18671D02*
X28050Y-18371D01*
X26702Y-18671D02*
X26588Y-18671D01*
X26645Y-18671D02*
X26645Y-18371D01*
X26626Y-18414D01*
X26607Y-18442D01*
X26588Y-18457D01*
X26930Y-18357D02*
X26759Y-18742D01*
X27111Y-18671D02*
X27045Y-18528D01*
X26997Y-18671D02*
X26997Y-18371D01*
X27073Y-18371D01*
X27092Y-18385D01*
X27102Y-18400D01*
X27111Y-18428D01*
X27111Y-18471D01*
X27102Y-18500D01*
X27092Y-18514D01*
X27073Y-18528D01*
X26997Y-18528D01*
X25740Y-18671D02*
X25673Y-18528D01*
X25626Y-18671D02*
X25626Y-18371D01*
X25702Y-18371D01*
X25721Y-18385D01*
X25730Y-18400D01*
X25740Y-18428D01*
X25740Y-18471D01*
X25730Y-18500D01*
X25721Y-18514D01*
X25702Y-18528D01*
X25626Y-18528D01*
X25816Y-18657D02*
X25845Y-18671D01*
X25892Y-18671D01*
X25911Y-18657D01*
X25921Y-18642D01*
X25930Y-18614D01*
X25930Y-18585D01*
X25921Y-18557D01*
X25911Y-18542D01*
X25892Y-18528D01*
X25854Y-18514D01*
X25835Y-18500D01*
X25826Y-18485D01*
X25816Y-18457D01*
X25816Y-18428D01*
X25826Y-18400D01*
X25835Y-18385D01*
X25854Y-18371D01*
X25902Y-18371D01*
X25930Y-18385D01*
X25988Y-18371D02*
X26102Y-18371D01*
X26045Y-18671D02*
X26045Y-18371D01*
X24697Y-18385D02*
X24678Y-18371D01*
X24650Y-18371D01*
X24621Y-18385D01*
X24602Y-18414D01*
X24592Y-18442D01*
X24583Y-18500D01*
X24583Y-18542D01*
X24592Y-18600D01*
X24602Y-18628D01*
X24621Y-18657D01*
X24650Y-18671D01*
X24669Y-18671D01*
X24697Y-18657D01*
X24707Y-18642D01*
X24707Y-18542D01*
X24669Y-18542D01*
X24792Y-18671D02*
X24792Y-18371D01*
X24907Y-18671D01*
X24907Y-18371D01*
X25002Y-18671D02*
X25002Y-18371D01*
X25050Y-18371D01*
X25078Y-18385D01*
X25097Y-18414D01*
X25107Y-18442D01*
X25116Y-18500D01*
X25116Y-18542D01*
X25107Y-18600D01*
X25097Y-18628D01*
X25078Y-18657D01*
X25050Y-18671D01*
X25002Y-18671D01*
X23792Y-18400D02*
X23802Y-18385D01*
X23821Y-18371D01*
X23869Y-18371D01*
X23888Y-18385D01*
X23897Y-18400D01*
X23907Y-18428D01*
X23907Y-18457D01*
X23897Y-18500D01*
X23783Y-18671D01*
X23907Y-18671D01*
X22783Y-18371D02*
X22907Y-18371D01*
X22840Y-18485D01*
X22869Y-18485D01*
X22888Y-18500D01*
X22897Y-18514D01*
X22907Y-18542D01*
X22907Y-18614D01*
X22897Y-18642D01*
X22888Y-18657D01*
X22869Y-18671D01*
X22811Y-18671D01*
X22792Y-18657D01*
X22783Y-18642D01*
X21888Y-18471D02*
X21888Y-18671D01*
X21840Y-18357D02*
X21792Y-18571D01*
X21916Y-18571D01*
X20897Y-18371D02*
X20802Y-18371D01*
X20792Y-18514D01*
X20802Y-18500D01*
X20821Y-18485D01*
X20869Y-18485D01*
X20888Y-18500D01*
X20897Y-18514D01*
X20907Y-18542D01*
X20907Y-18614D01*
X20897Y-18642D01*
X20888Y-18657D01*
X20869Y-18671D01*
X20821Y-18671D01*
X20802Y-18657D01*
X20792Y-18642D01*
X19888Y-18371D02*
X19850Y-18371D01*
X19830Y-18385D01*
X19821Y-18400D01*
X19802Y-18442D01*
X19792Y-18500D01*
X19792Y-18614D01*
X19802Y-18642D01*
X19811Y-18657D01*
X19830Y-18671D01*
X19869Y-18671D01*
X19888Y-18657D01*
X19897Y-18642D01*
X19907Y-18614D01*
X19907Y-18542D01*
X19897Y-18514D01*
X19888Y-18500D01*
X19869Y-18485D01*
X19830Y-18485D01*
X19811Y-18500D01*
X19802Y-18514D01*
X19792Y-18542D01*
X18783Y-18371D02*
X18916Y-18371D01*
X18830Y-18671D01*
X17830Y-18500D02*
X17811Y-18485D01*
X17802Y-18471D01*
X17792Y-18442D01*
X17792Y-18428D01*
X17802Y-18400D01*
X17811Y-18385D01*
X17830Y-18371D01*
X17869Y-18371D01*
X17888Y-18385D01*
X17897Y-18400D01*
X17907Y-18428D01*
X17907Y-18442D01*
X17897Y-18471D01*
X17888Y-18485D01*
X17869Y-18500D01*
X17830Y-18500D01*
X17811Y-18514D01*
X17802Y-18528D01*
X17792Y-18557D01*
X17792Y-18614D01*
X17802Y-18642D01*
X17811Y-18657D01*
X17830Y-18671D01*
X17869Y-18671D01*
X17888Y-18657D01*
X17897Y-18642D01*
X17907Y-18614D01*
X17907Y-18557D01*
X17897Y-18528D01*
X17888Y-18514D01*
X17869Y-18500D01*
X16811Y-18671D02*
X16850Y-18671D01*
X16869Y-18657D01*
X16878Y-18642D01*
X16897Y-18600D01*
X16907Y-18542D01*
X16907Y-18428D01*
X16897Y-18400D01*
X16888Y-18385D01*
X16869Y-18371D01*
X16830Y-18371D01*
X16811Y-18385D01*
X16802Y-18400D01*
X16792Y-18428D01*
X16792Y-18500D01*
X16802Y-18528D01*
X16811Y-18542D01*
X16830Y-18557D01*
X16869Y-18557D01*
X16888Y-18542D01*
X16897Y-18528D01*
X16907Y-18500D01*
G54D12*
X9850Y-20450D02*
X9850Y-20650D01*
X9850Y-23450D02*
X9850Y-23250D01*
X9850Y-23250D02*
X10250Y-23250D01*
X10250Y-23250D02*
X10250Y-20650D01*
X10250Y-20650D02*
X9450Y-20650D01*
X9450Y-20650D02*
X9450Y-23250D01*
X9450Y-23250D02*
X9850Y-23250D01*
X10050Y-20650D02*
X10250Y-20850D01*
X10850Y-21450D02*
X10850Y-21650D01*
X10850Y-24450D02*
X10850Y-24250D01*
X10850Y-24250D02*
X11250Y-24250D01*
X11250Y-24250D02*
X11250Y-21650D01*
X11250Y-21650D02*
X10450Y-21650D01*
X10450Y-21650D02*
X10450Y-24250D01*
X10450Y-24250D02*
X10850Y-24250D01*
X11050Y-21650D02*
X11250Y-21850D01*
X11850Y-22450D02*
X11850Y-22650D01*
X11850Y-25450D02*
X11850Y-25250D01*
X11850Y-25250D02*
X12250Y-25250D01*
X12250Y-25250D02*
X12250Y-22650D01*
X12250Y-22650D02*
X11450Y-22650D01*
X11450Y-22650D02*
X11450Y-25250D01*
X11450Y-25250D02*
X11850Y-25250D01*
X12050Y-22650D02*
X12250Y-22850D01*
G54D13*
X14350Y-24950D02*
X14350Y-20950D01*
X14350Y-20950D02*
X16350Y-20950D01*
X16350Y-20950D02*
X16350Y-24950D01*
X16350Y-24950D02*
X14350Y-24950D01*
G54D14*
X28350Y-18950D02*
X28350Y-19950D01*
X28350Y-19950D02*
X16350Y-19950D01*
X16350Y-19950D02*
X16350Y-18950D01*
X16350Y-18950D02*
X28350Y-18950D01*
X28350Y-24950D02*
X28350Y-25950D01*
X28350Y-25950D02*
X16350Y-25950D01*
X16350Y-25950D02*
X16350Y-24950D01*
X16350Y-24950D02*
X28350Y-24950D01*
G54D12*
X10022Y-21795D02*
X9760Y-21961D01*
X10022Y-22080D02*
X9472Y-22080D01*
X9472Y-21890D01*
X9498Y-21842D01*
X9525Y-21819D01*
X9577Y-21795D01*
X9655Y-21795D01*
X9708Y-21819D01*
X9734Y-21842D01*
X9760Y-21890D01*
X9760Y-22080D01*
X11022Y-22795D02*
X10760Y-22961D01*
X11022Y-23080D02*
X10472Y-23080D01*
X10472Y-22890D01*
X10498Y-22842D01*
X10525Y-22819D01*
X10577Y-22795D01*
X10655Y-22795D01*
X10708Y-22819D01*
X10734Y-22842D01*
X10760Y-22890D01*
X10760Y-23080D01*
X12022Y-23795D02*
X11760Y-23961D01*
X12022Y-24080D02*
X11472Y-24080D01*
X11472Y-23890D01*
X11498Y-23842D01*
X11525Y-23819D01*
X11577Y-23795D01*
X11655Y-23795D01*
X11708Y-23819D01*
X11734Y-23842D01*
X11760Y-23890D01*
X11760Y-24080D01*
X14011Y-23626D02*
X13611Y-23626D01*
X14011Y-23397D01*
X13611Y-23397D01*
X14011Y-22978D02*
X13821Y-23111D01*
X14011Y-23207D02*
X13611Y-23207D01*
X13611Y-23054D01*
X13630Y-23016D01*
X13650Y-22997D01*
X13688Y-22978D01*
X13745Y-22978D01*
X13783Y-22997D01*
X13802Y-23016D01*
X13821Y-23054D01*
X13821Y-23207D01*
X13802Y-22673D02*
X13802Y-22807D01*
X14011Y-22807D02*
X13611Y-22807D01*
X13611Y-22616D01*
X14011Y-22254D02*
X14011Y-22483D01*
X14011Y-22369D02*
X13611Y-22369D01*
X13669Y-22407D01*
X13707Y-22445D01*
X13726Y-22483D01*
X13861Y-23245D02*
X13461Y-23245D01*
X13461Y-23092D01*
X13480Y-23054D01*
X13500Y-23035D01*
X13538Y-23016D01*
X13595Y-23016D01*
X13633Y-23035D01*
X13652Y-23054D01*
X13671Y-23092D01*
X13671Y-23245D01*
X13861Y-22635D02*
X13861Y-22864D01*
X13861Y-22749D02*
X13461Y-22749D01*
X13519Y-22788D01*
X13557Y-22826D01*
X13576Y-22864D01*
X16897Y-23135D02*
X16897Y-22945D01*
X17011Y-23173D02*
X16611Y-23040D01*
X17011Y-22907D01*
X16973Y-22545D02*
X16992Y-22564D01*
X17011Y-22621D01*
X17011Y-22659D01*
X16992Y-22716D01*
X16954Y-22754D01*
X16916Y-22773D01*
X16840Y-22792D01*
X16783Y-22792D01*
X16707Y-22773D01*
X16669Y-22754D01*
X16630Y-22716D01*
X16611Y-22659D01*
X16611Y-22621D01*
X16630Y-22564D01*
X16650Y-22545D01*
X16973Y-22145D02*
X16992Y-22164D01*
X17011Y-22221D01*
X17011Y-22259D01*
X16992Y-22316D01*
X16954Y-22354D01*
X16916Y-22373D01*
X16840Y-22392D01*
X16783Y-22392D01*
X16707Y-22373D01*
X16669Y-22354D01*
X16630Y-22316D01*
X16611Y-22259D01*
X16611Y-22221D01*
X16630Y-22164D01*
X16650Y-22145D01*
X17011Y-21764D02*
X17011Y-21992D01*
X17011Y-21878D02*
X16611Y-21878D01*
X16669Y-21916D01*
X16707Y-21954D01*
X16726Y-21992D01*
X26897Y-23135D02*
X26897Y-22945D01*
X27011Y-23173D02*
X26611Y-23040D01*
X27011Y-22907D01*
X26973Y-22545D02*
X26992Y-22564D01*
X27011Y-22621D01*
X27011Y-22659D01*
X26992Y-22716D01*
X26954Y-22754D01*
X26916Y-22773D01*
X26840Y-22792D01*
X26783Y-22792D01*
X26707Y-22773D01*
X26669Y-22754D01*
X26630Y-22716D01*
X26611Y-22659D01*
X26611Y-22621D01*
X26630Y-22564D01*
X26650Y-22545D01*
X26973Y-22145D02*
X26992Y-22164D01*
X27011Y-22221D01*
X27011Y-22259D01*
X26992Y-22316D01*
X26954Y-22354D01*
X26916Y-22373D01*
X26840Y-22392D01*
X26783Y-22392D01*
X26707Y-22373D01*
X26669Y-22354D01*
X26630Y-22316D01*
X26611Y-22259D01*
X26611Y-22221D01*
X26630Y-22164D01*
X26650Y-22145D01*
X26650Y-21992D02*
X26630Y-21973D01*
X26611Y-21935D01*
X26611Y-21840D01*
X26630Y-21802D01*
X26650Y-21783D01*
X26688Y-21764D01*
X26726Y-21764D01*
X26783Y-21783D01*
X27011Y-22011D01*
X27011Y-21764D01*
G54D15*
X21635Y-18497D02*
X21826Y-18497D01*
X21597Y-18611D02*
X21730Y-18211D01*
X21864Y-18611D01*
X21997Y-18611D02*
X21997Y-18211D01*
X22150Y-18211D01*
X22188Y-18230D01*
X22207Y-18250D01*
X22226Y-18288D01*
X22226Y-18345D01*
X22207Y-18383D01*
X22188Y-18402D01*
X22150Y-18421D01*
X21997Y-18421D01*
X22397Y-18611D02*
X22397Y-18211D01*
X22530Y-18497D01*
X22664Y-18211D01*
X22664Y-18611D01*
X23064Y-18611D02*
X22835Y-18611D01*
X22950Y-18611D02*
X22950Y-18211D01*
X22911Y-18269D01*
X22873Y-18307D01*
X22835Y-18326D01*
G54D12*
X21311Y-21573D02*
X21292Y-21592D01*
X21235Y-21611D01*
X21197Y-21611D01*
X21140Y-21592D01*
X21102Y-21554D01*
X21083Y-21516D01*
X21064Y-21440D01*
X21064Y-21383D01*
X21083Y-21307D01*
X21102Y-21269D01*
X21140Y-21230D01*
X21197Y-21211D01*
X21235Y-21211D01*
X21292Y-21230D01*
X21311Y-21250D01*
X21559Y-21211D02*
X21635Y-21211D01*
X21673Y-21230D01*
X21711Y-21269D01*
X21730Y-21345D01*
X21730Y-21478D01*
X21711Y-21554D01*
X21673Y-21592D01*
X21635Y-21611D01*
X21559Y-21611D01*
X21521Y-21592D01*
X21483Y-21554D01*
X21464Y-21478D01*
X21464Y-21345D01*
X21483Y-21269D01*
X21521Y-21230D01*
X21559Y-21211D01*
X21902Y-21611D02*
X21902Y-21211D01*
X22130Y-21611D01*
X22130Y-21211D01*
X22321Y-21611D02*
X22321Y-21211D01*
X22550Y-21611D01*
X22550Y-21211D01*
X22645Y-21650D02*
X22950Y-21650D01*
X23254Y-21611D02*
X23026Y-21611D01*
X23140Y-21611D02*
X23140Y-21211D01*
X23102Y-21269D01*
X23064Y-21307D01*
X23026Y-21326D01*
X23407Y-21250D02*
X23426Y-21230D01*
X23464Y-21211D01*
X23559Y-21211D01*
X23597Y-21230D01*
X23616Y-21250D01*
X23635Y-21288D01*
X23635Y-21326D01*
X23616Y-21383D01*
X23388Y-21611D01*
X23635Y-21611D01*
G54D15*
X21635Y-24497D02*
X21826Y-24497D01*
X21597Y-24611D02*
X21730Y-24211D01*
X21864Y-24611D01*
X21997Y-24611D02*
X21997Y-24211D01*
X22150Y-24211D01*
X22188Y-24230D01*
X22207Y-24250D01*
X22226Y-24288D01*
X22226Y-24345D01*
X22207Y-24383D01*
X22188Y-24402D01*
X22150Y-24421D01*
X21997Y-24421D01*
X22397Y-24611D02*
X22397Y-24211D01*
X22530Y-24497D01*
X22664Y-24211D01*
X22664Y-24611D01*
X22835Y-24250D02*
X22854Y-24230D01*
X22892Y-24211D01*
X22988Y-24211D01*
X23026Y-24230D01*
X23045Y-24250D01*
X23064Y-24288D01*
X23064Y-24326D01*
X23045Y-24383D01*
X22816Y-24611D01*
X23064Y-24611D01*
G54D12*
X21311Y-27573D02*
X21292Y-27592D01*
X21235Y-27611D01*
X21197Y-27611D01*
X21140Y-27592D01*
X21102Y-27554D01*
X21083Y-27516D01*
X21064Y-27440D01*
X21064Y-27383D01*
X21083Y-27307D01*
X21102Y-27269D01*
X21140Y-27230D01*
X21197Y-27211D01*
X21235Y-27211D01*
X21292Y-27230D01*
X21311Y-27250D01*
X21559Y-27211D02*
X21635Y-27211D01*
X21673Y-27230D01*
X21711Y-27269D01*
X21730Y-27345D01*
X21730Y-27478D01*
X21711Y-27554D01*
X21673Y-27592D01*
X21635Y-27611D01*
X21559Y-27611D01*
X21521Y-27592D01*
X21483Y-27554D01*
X21464Y-27478D01*
X21464Y-27345D01*
X21483Y-27269D01*
X21521Y-27230D01*
X21559Y-27211D01*
X21902Y-27611D02*
X21902Y-27211D01*
X22130Y-27611D01*
X22130Y-27211D01*
X22321Y-27611D02*
X22321Y-27211D01*
X22550Y-27611D01*
X22550Y-27211D01*
X22645Y-27650D02*
X22950Y-27650D01*
X23254Y-27611D02*
X23026Y-27611D01*
X23140Y-27611D02*
X23140Y-27211D01*
X23102Y-27269D01*
X23064Y-27307D01*
X23026Y-27326D01*
X23407Y-27250D02*
X23426Y-27230D01*
X23464Y-27211D01*
X23559Y-27211D01*
X23597Y-27230D01*
X23616Y-27250D01*
X23635Y-27288D01*
X23635Y-27326D01*
X23616Y-27383D01*
X23388Y-27611D01*
X23635Y-27611D01*
M02*
