G04 (created by PCBNEW (2013-jul-07)-stable) date wo 20 nov 2013 00:02:11 CET*
%MOIN*%
G04 Gerber Fmt 3.4, Leading zero omitted, Abs format*
%FSLAX34Y34*%
G01*
G70*
G90*
G04 APERTURE LIST*
%ADD10C,0.00393701*%
%ADD11C,0.005*%
%ADD12C,0.012*%
G04 APERTURE END LIST*
G54D10*
G54D11*
X22728Y-23097D02*
X23028Y-23097D01*
X22814Y-23030D01*
X23028Y-22964D01*
X22728Y-22964D01*
X22728Y-22869D02*
X23028Y-22869D01*
X22814Y-22802D01*
X23028Y-22735D01*
X22728Y-22735D01*
X22814Y-22650D02*
X22814Y-22554D01*
X22728Y-22669D02*
X23028Y-22602D01*
X22728Y-22535D01*
X23028Y-22488D02*
X23028Y-22354D01*
X22728Y-22440D01*
X23028Y-22297D02*
X23028Y-22173D01*
X22914Y-22240D01*
X22914Y-22211D01*
X22900Y-22192D01*
X22885Y-22183D01*
X22857Y-22173D01*
X22785Y-22173D01*
X22757Y-22183D01*
X22742Y-22192D01*
X22728Y-22211D01*
X22728Y-22269D01*
X22742Y-22288D01*
X22757Y-22297D01*
X23028Y-22002D02*
X23028Y-22040D01*
X23014Y-22059D01*
X23000Y-22069D01*
X22957Y-22088D01*
X22900Y-22097D01*
X22785Y-22097D01*
X22757Y-22088D01*
X22742Y-22078D01*
X22728Y-22059D01*
X22728Y-22021D01*
X22742Y-22002D01*
X22757Y-21992D01*
X22785Y-21983D01*
X22857Y-21983D01*
X22885Y-21992D01*
X22900Y-22002D01*
X22914Y-22021D01*
X22914Y-22059D01*
X22900Y-22078D01*
X22885Y-22088D01*
X22857Y-22097D01*
X22728Y-21792D02*
X22728Y-21907D01*
X22728Y-21849D02*
X23028Y-21849D01*
X22985Y-21869D01*
X22957Y-21888D01*
X22942Y-21907D01*
X26742Y-20583D02*
X26728Y-20554D01*
X26728Y-20507D01*
X26742Y-20488D01*
X26757Y-20478D01*
X26785Y-20469D01*
X26814Y-20469D01*
X26842Y-20478D01*
X26857Y-20488D01*
X26871Y-20507D01*
X26885Y-20545D01*
X26900Y-20564D01*
X26914Y-20573D01*
X26942Y-20583D01*
X26971Y-20583D01*
X27000Y-20573D01*
X27014Y-20564D01*
X27028Y-20545D01*
X27028Y-20497D01*
X27014Y-20469D01*
X27028Y-20411D02*
X27028Y-20297D01*
X26728Y-20354D02*
X27028Y-20354D01*
X19028Y-20559D02*
X19028Y-20540D01*
X19014Y-20521D01*
X19000Y-20511D01*
X18971Y-20502D01*
X18914Y-20492D01*
X18842Y-20492D01*
X18785Y-20502D01*
X18757Y-20511D01*
X18742Y-20521D01*
X18728Y-20540D01*
X18728Y-20559D01*
X18742Y-20578D01*
X18757Y-20588D01*
X18785Y-20597D01*
X18842Y-20607D01*
X18914Y-20607D01*
X18971Y-20597D01*
X19000Y-20588D01*
X19014Y-20578D01*
X19028Y-20559D01*
X19014Y-20302D02*
X19028Y-20321D01*
X19028Y-20350D01*
X19014Y-20378D01*
X18985Y-20397D01*
X18957Y-20407D01*
X18900Y-20416D01*
X18857Y-20416D01*
X18800Y-20407D01*
X18771Y-20397D01*
X18742Y-20378D01*
X18728Y-20350D01*
X18728Y-20330D01*
X18742Y-20302D01*
X18757Y-20292D01*
X18857Y-20292D01*
X18857Y-20330D01*
X27014Y-21492D02*
X27028Y-21511D01*
X27028Y-21540D01*
X27014Y-21569D01*
X26985Y-21588D01*
X26957Y-21597D01*
X26900Y-21607D01*
X26857Y-21607D01*
X26800Y-21597D01*
X26771Y-21588D01*
X26742Y-21569D01*
X26728Y-21540D01*
X26728Y-21521D01*
X26742Y-21492D01*
X26757Y-21483D01*
X26857Y-21483D01*
X26857Y-21521D01*
X26742Y-21407D02*
X26728Y-21378D01*
X26728Y-21330D01*
X26742Y-21311D01*
X26757Y-21302D01*
X26785Y-21292D01*
X26814Y-21292D01*
X26842Y-21302D01*
X26857Y-21311D01*
X26871Y-21330D01*
X26885Y-21369D01*
X26900Y-21388D01*
X26914Y-21397D01*
X26942Y-21407D01*
X26971Y-21407D01*
X27000Y-21397D01*
X27014Y-21388D01*
X27028Y-21369D01*
X27028Y-21321D01*
X27014Y-21292D01*
X27014Y-22602D02*
X27028Y-22621D01*
X27028Y-22650D01*
X27014Y-22678D01*
X26985Y-22697D01*
X26957Y-22707D01*
X26900Y-22716D01*
X26857Y-22716D01*
X26800Y-22707D01*
X26771Y-22697D01*
X26742Y-22678D01*
X26728Y-22650D01*
X26728Y-22630D01*
X26742Y-22602D01*
X26757Y-22592D01*
X26857Y-22592D01*
X26857Y-22630D01*
X26728Y-22507D02*
X27028Y-22507D01*
X26728Y-22392D01*
X27028Y-22392D01*
X26728Y-22297D02*
X27028Y-22297D01*
X27028Y-22250D01*
X27014Y-22221D01*
X26985Y-22202D01*
X26957Y-22192D01*
X26900Y-22183D01*
X26857Y-22183D01*
X26800Y-22192D01*
X26771Y-22202D01*
X26742Y-22221D01*
X26728Y-22250D01*
X26728Y-22297D01*
X27028Y-23697D02*
X27028Y-23573D01*
X26914Y-23640D01*
X26914Y-23611D01*
X26900Y-23592D01*
X26885Y-23583D01*
X26857Y-23573D01*
X26785Y-23573D01*
X26757Y-23583D01*
X26742Y-23592D01*
X26728Y-23611D01*
X26728Y-23669D01*
X26742Y-23688D01*
X26757Y-23697D01*
X27028Y-23516D02*
X26728Y-23450D01*
X27028Y-23383D01*
X27028Y-23335D02*
X27028Y-23211D01*
X26914Y-23278D01*
X26914Y-23249D01*
X26900Y-23230D01*
X26885Y-23221D01*
X26857Y-23211D01*
X26785Y-23211D01*
X26757Y-23221D01*
X26742Y-23230D01*
X26728Y-23249D01*
X26728Y-23307D01*
X26742Y-23326D01*
X26757Y-23335D01*
X27028Y-24488D02*
X27028Y-24583D01*
X26885Y-24592D01*
X26900Y-24583D01*
X26914Y-24564D01*
X26914Y-24516D01*
X26900Y-24497D01*
X26885Y-24488D01*
X26857Y-24478D01*
X26785Y-24478D01*
X26757Y-24488D01*
X26742Y-24497D01*
X26728Y-24516D01*
X26728Y-24564D01*
X26742Y-24583D01*
X26757Y-24592D01*
X27028Y-24421D02*
X26728Y-24354D01*
X27028Y-24288D01*
X18742Y-21588D02*
X18728Y-21559D01*
X18728Y-21511D01*
X18742Y-21492D01*
X18757Y-21483D01*
X18785Y-21473D01*
X18814Y-21473D01*
X18842Y-21483D01*
X18857Y-21492D01*
X18871Y-21511D01*
X18885Y-21550D01*
X18900Y-21569D01*
X18914Y-21578D01*
X18942Y-21588D01*
X18971Y-21588D01*
X19000Y-21578D01*
X19014Y-21569D01*
X19028Y-21550D01*
X19028Y-21502D01*
X19014Y-21473D01*
X18728Y-21292D02*
X18728Y-21388D01*
X19028Y-21388D01*
X19028Y-22516D02*
X19028Y-22383D01*
X18728Y-22516D01*
X18728Y-22383D01*
X18871Y-23450D02*
X18728Y-23450D01*
X19028Y-23516D02*
X18871Y-23450D01*
X19028Y-23383D01*
X19028Y-24516D02*
X18728Y-24383D01*
X19028Y-24383D02*
X18728Y-24516D01*
X13885Y-25616D02*
X13871Y-25588D01*
X13857Y-25578D01*
X13828Y-25569D01*
X13785Y-25569D01*
X13757Y-25578D01*
X13742Y-25588D01*
X13728Y-25607D01*
X13728Y-25683D01*
X14028Y-25683D01*
X14028Y-25616D01*
X14014Y-25597D01*
X14000Y-25588D01*
X13971Y-25578D01*
X13942Y-25578D01*
X13914Y-25588D01*
X13900Y-25597D01*
X13885Y-25616D01*
X13885Y-25683D01*
X14028Y-25511D02*
X14028Y-25397D01*
X13728Y-25454D02*
X14028Y-25454D01*
X13728Y-25330D02*
X14028Y-25330D01*
X13728Y-25216D01*
X14028Y-25216D01*
X14014Y-24602D02*
X14028Y-24621D01*
X14028Y-24650D01*
X14014Y-24678D01*
X13985Y-24697D01*
X13957Y-24707D01*
X13900Y-24716D01*
X13857Y-24716D01*
X13800Y-24707D01*
X13771Y-24697D01*
X13742Y-24678D01*
X13728Y-24650D01*
X13728Y-24630D01*
X13742Y-24602D01*
X13757Y-24592D01*
X13857Y-24592D01*
X13857Y-24630D01*
X13728Y-24507D02*
X14028Y-24507D01*
X13728Y-24392D01*
X14028Y-24392D01*
X13728Y-24297D02*
X14028Y-24297D01*
X14028Y-24250D01*
X14014Y-24221D01*
X13985Y-24202D01*
X13957Y-24192D01*
X13900Y-24183D01*
X13857Y-24183D01*
X13800Y-24192D01*
X13771Y-24202D01*
X13742Y-24221D01*
X13728Y-24250D01*
X13728Y-24297D01*
X14014Y-23602D02*
X14028Y-23621D01*
X14028Y-23650D01*
X14014Y-23678D01*
X13985Y-23697D01*
X13957Y-23707D01*
X13900Y-23716D01*
X13857Y-23716D01*
X13800Y-23707D01*
X13771Y-23697D01*
X13742Y-23678D01*
X13728Y-23650D01*
X13728Y-23630D01*
X13742Y-23602D01*
X13757Y-23592D01*
X13857Y-23592D01*
X13857Y-23630D01*
X13728Y-23507D02*
X14028Y-23507D01*
X13728Y-23392D01*
X14028Y-23392D01*
X13728Y-23297D02*
X14028Y-23297D01*
X14028Y-23250D01*
X14014Y-23221D01*
X13985Y-23202D01*
X13957Y-23192D01*
X13900Y-23183D01*
X13857Y-23183D01*
X13800Y-23192D01*
X13771Y-23202D01*
X13742Y-23221D01*
X13728Y-23250D01*
X13728Y-23297D01*
X13885Y-20435D02*
X13871Y-20407D01*
X13857Y-20397D01*
X13828Y-20388D01*
X13785Y-20388D01*
X13757Y-20397D01*
X13742Y-20407D01*
X13728Y-20426D01*
X13728Y-20502D01*
X14028Y-20502D01*
X14028Y-20435D01*
X14014Y-20416D01*
X14000Y-20407D01*
X13971Y-20397D01*
X13942Y-20397D01*
X13914Y-20407D01*
X13900Y-20416D01*
X13885Y-20435D01*
X13885Y-20502D01*
X14014Y-21397D02*
X14028Y-21416D01*
X14028Y-21445D01*
X14014Y-21473D01*
X13985Y-21492D01*
X13957Y-21502D01*
X13900Y-21511D01*
X13857Y-21511D01*
X13800Y-21502D01*
X13771Y-21492D01*
X13742Y-21473D01*
X13728Y-21445D01*
X13728Y-21426D01*
X13742Y-21397D01*
X13757Y-21388D01*
X13857Y-21388D01*
X13857Y-21426D01*
X13728Y-22388D02*
X13871Y-22454D01*
X13728Y-22502D02*
X14028Y-22502D01*
X14028Y-22426D01*
X14014Y-22407D01*
X14000Y-22397D01*
X13971Y-22388D01*
X13928Y-22388D01*
X13900Y-22397D01*
X13885Y-22407D01*
X13871Y-22426D01*
X13871Y-22502D01*
G54D12*
X12350Y-19950D02*
X13350Y-19950D01*
X13350Y-19950D02*
X13350Y-25950D01*
X13350Y-25950D02*
X12350Y-25950D01*
X12350Y-25950D02*
X12350Y-19950D01*
X12350Y-20950D02*
X13350Y-20950D01*
X17350Y-24950D02*
X18350Y-24950D01*
X18350Y-19950D02*
X17350Y-19950D01*
X17350Y-24950D02*
X17350Y-19950D01*
X18350Y-19950D02*
X18350Y-24950D01*
X27350Y-24950D02*
X28350Y-24950D01*
X28350Y-19950D02*
X27350Y-19950D01*
X27350Y-24950D02*
X27350Y-19950D01*
X28350Y-19950D02*
X28350Y-24950D01*
M02*
