M48
;DRILL file {Pcbnew (2013-jul-07)-stable} date wo 20 nov 2013 00:03:18 CET
;FORMAT={2:4/ absolute / inch / suppress leading zeros}
FMAT,2
INCH,TZ
T1C0.025
T2C0.032
T3C0.040
%
G90
G05
M72
T1
X14850Y-19450
X14850Y-19950
X14850Y-20450
X15850Y-19450
X15850Y-19950
X15850Y-20450
X16850Y-24450
X23350Y-21450
X24850Y-21450
T2
X9850Y-20450
X9850Y-23450
X10850Y-21450
X10850Y-24450
X11850Y-22450
X11850Y-25450
T3
X12850Y-20450
X12850Y-21450
X12850Y-22450
X12850Y-23450
X12850Y-24450
X12850Y-25450
X14850Y-21450
X14850Y-22450
X14850Y-23450
X14850Y-24450
X15850Y-21450
X15850Y-22450
X15850Y-23450
X15850Y-24450
X16850Y-19450
X16850Y-25450
X17850Y-19450
X17850Y-20450
X17850Y-21450
X17850Y-22450
X17850Y-23450
X17850Y-24450
X17850Y-25450
X18850Y-19450
X18850Y-25450
X19850Y-19450
X19850Y-25450
X20850Y-19450
X20850Y-25450
X21850Y-19450
X21850Y-25450
X22850Y-19450
X22850Y-25450
X23850Y-19450
X23850Y-25450
X24850Y-19450
X24850Y-25450
X25850Y-19450
X25850Y-25450
X26850Y-19450
X26850Y-25450
X27850Y-19450
X27850Y-20450
X27850Y-21450
X27850Y-22450
X27850Y-23450
X27850Y-24450
X27850Y-25450
T0
M30
