M48
INCH,TZ
T1C0.025
T2C0.032
T3C0.040
T4C0.120
%
G90
G05
T1
X22000Y-23500
X28000Y-28500
X29000Y-19500
X31000Y-19500
X38000Y-20500
X38000Y-22500
X40000Y-24500
X40000Y-27500
X40000Y-28500
X41000Y-21500
X41000Y-28500
X42000Y-24500
X42000Y-26500
X46000Y-23500
T2
X20000Y-21500
X20000Y-27500
X21000Y-21500
X21000Y-27500
X22000Y-21500
X22000Y-27500
X23000Y-21500
X23000Y-27500
X24000Y-21500
X24000Y-27500
X25000Y-21500
X25000Y-27500
X26000Y-19500
X26000Y-20500
X26000Y-21500
X26000Y-27500
X27000Y-19500
X27000Y-20500
X27000Y-21500
X27000Y-27500
X28000Y-19500
X28000Y-20500
X28000Y-21500
X28000Y-27500
X29000Y-21500
X29000Y-27500
X30000Y-21500
X30000Y-27500
X31000Y-21500
X31000Y-27500
X32000Y-21500
X32000Y-27500
X33000Y-21500
X33000Y-27500
X34000Y-21500
X34000Y-27500
T3
X26000Y-18500
X27000Y-18500
X28000Y-18500
X29000Y-18500
X30000Y-18500
X31000Y-18500
X38000Y-19500
X38000Y-29500
X39000Y-19500
X39000Y-29500
X40000Y-19500
X40000Y-29500
X41000Y-19500
X41000Y-29500
X42000Y-19500
X42000Y-29500
X44000Y-22500
X44000Y-23500
X44000Y-24500
X44000Y-25500
X45000Y-22500
X45000Y-23500
X45000Y-24500
X45000Y-25500
T4
X18500Y-18500
X18500Y-29000
X54000Y-18500
X54000Y-29000
T0
M30
