G04 (created by PCBNEW (2013-jul-07)-stable) date wo 25 sep 2013 09:33:20 CEST*
%MOIN*%
G04 Gerber Fmt 3.4, Leading zero omitted, Abs format*
%FSLAX34Y34*%
G01*
G70*
G90*
G04 APERTURE LIST*
%ADD10C,0.00590551*%
%ADD11C,0.00787402*%
%ADD12C,0.01*%
%ADD13C,0.015*%
%ADD14C,0.012*%
%ADD15C,0.008*%
G04 APERTURE END LIST*
G54D10*
G54D11*
X18500Y-21000D02*
X18500Y-28000D01*
X35500Y-21000D02*
X18500Y-21000D01*
X35500Y-28000D02*
X35500Y-21000D01*
X18500Y-28000D02*
X35500Y-28000D01*
X28760Y-17327D02*
X28730Y-17312D01*
X28685Y-17312D01*
X28640Y-17327D01*
X28610Y-17357D01*
X28595Y-17387D01*
X28580Y-17447D01*
X28580Y-17492D01*
X28595Y-17552D01*
X28610Y-17582D01*
X28640Y-17612D01*
X28685Y-17627D01*
X28715Y-17627D01*
X28760Y-17612D01*
X28775Y-17597D01*
X28775Y-17492D01*
X28715Y-17492D01*
X28910Y-17627D02*
X28910Y-17312D01*
X29089Y-17627D01*
X29089Y-17312D01*
X29239Y-17627D02*
X29239Y-17312D01*
X29314Y-17312D01*
X29359Y-17327D01*
X29389Y-17357D01*
X29404Y-17387D01*
X29419Y-17447D01*
X29419Y-17492D01*
X29404Y-17552D01*
X29389Y-17582D01*
X29359Y-17612D01*
X29314Y-17627D01*
X29239Y-17627D01*
X28097Y-17627D02*
X27992Y-17477D01*
X27917Y-17627D02*
X27917Y-17312D01*
X28037Y-17312D01*
X28067Y-17327D01*
X28082Y-17342D01*
X28097Y-17372D01*
X28097Y-17417D01*
X28082Y-17447D01*
X28067Y-17462D01*
X28037Y-17477D01*
X27917Y-17477D01*
X27082Y-17327D02*
X27052Y-17312D01*
X27007Y-17312D01*
X26962Y-17327D01*
X26932Y-17357D01*
X26917Y-17387D01*
X26902Y-17447D01*
X26902Y-17492D01*
X26917Y-17552D01*
X26932Y-17582D01*
X26962Y-17612D01*
X27007Y-17627D01*
X27037Y-17627D01*
X27082Y-17612D01*
X27097Y-17597D01*
X27097Y-17492D01*
X27037Y-17492D01*
X26022Y-17462D02*
X26067Y-17477D01*
X26082Y-17492D01*
X26097Y-17522D01*
X26097Y-17567D01*
X26082Y-17597D01*
X26067Y-17612D01*
X26037Y-17627D01*
X25917Y-17627D01*
X25917Y-17312D01*
X26022Y-17312D01*
X26052Y-17327D01*
X26067Y-17342D01*
X26082Y-17372D01*
X26082Y-17402D01*
X26067Y-17432D01*
X26052Y-17447D01*
X26022Y-17462D01*
X25917Y-17462D01*
X30237Y-17462D02*
X30282Y-17477D01*
X30297Y-17492D01*
X30312Y-17522D01*
X30312Y-17567D01*
X30297Y-17597D01*
X30282Y-17612D01*
X30252Y-17627D01*
X30132Y-17627D01*
X30132Y-17312D01*
X30237Y-17312D01*
X30267Y-17327D01*
X30282Y-17342D01*
X30297Y-17372D01*
X30297Y-17402D01*
X30282Y-17432D01*
X30267Y-17447D01*
X30237Y-17462D01*
X30132Y-17462D01*
X30402Y-17312D02*
X30582Y-17312D01*
X30492Y-17627D02*
X30492Y-17312D01*
X30687Y-17627D02*
X30687Y-17312D01*
X30867Y-17627D01*
X30867Y-17312D01*
X41827Y-27812D02*
X41857Y-27812D01*
X41887Y-27827D01*
X41902Y-27842D01*
X41917Y-27872D01*
X41932Y-27932D01*
X41932Y-28007D01*
X41917Y-28067D01*
X41902Y-28097D01*
X41887Y-28112D01*
X41857Y-28127D01*
X41827Y-28127D01*
X41797Y-28112D01*
X41782Y-28097D01*
X41767Y-28067D01*
X41752Y-28007D01*
X41752Y-27932D01*
X41767Y-27872D01*
X41782Y-27842D01*
X41797Y-27827D01*
X41827Y-27812D01*
X42232Y-27827D02*
X42202Y-27812D01*
X42157Y-27812D01*
X42112Y-27827D01*
X42082Y-27857D01*
X42067Y-27887D01*
X42052Y-27947D01*
X42052Y-27992D01*
X42067Y-28052D01*
X42082Y-28082D01*
X42112Y-28112D01*
X42157Y-28127D01*
X42187Y-28127D01*
X42232Y-28112D01*
X42247Y-28097D01*
X42247Y-27992D01*
X42187Y-27992D01*
X40782Y-28112D02*
X40827Y-28127D01*
X40902Y-28127D01*
X40932Y-28112D01*
X40947Y-28097D01*
X40962Y-28067D01*
X40962Y-28037D01*
X40947Y-28007D01*
X40932Y-27992D01*
X40902Y-27977D01*
X40842Y-27962D01*
X40812Y-27947D01*
X40797Y-27932D01*
X40782Y-27902D01*
X40782Y-27872D01*
X40797Y-27842D01*
X40812Y-27827D01*
X40842Y-27812D01*
X40917Y-27812D01*
X40962Y-27827D01*
X41247Y-28127D02*
X41097Y-28127D01*
X41097Y-27812D01*
X39895Y-27812D02*
X40104Y-27812D01*
X39895Y-28127D01*
X40104Y-28127D01*
X39000Y-27977D02*
X39000Y-28127D01*
X38895Y-27812D02*
X39000Y-27977D01*
X39104Y-27812D01*
X37895Y-27812D02*
X38104Y-28127D01*
X38104Y-27812D02*
X37895Y-28127D01*
X41790Y-21112D02*
X41835Y-21127D01*
X41910Y-21127D01*
X41940Y-21112D01*
X41955Y-21097D01*
X41970Y-21067D01*
X41970Y-21037D01*
X41955Y-21007D01*
X41940Y-20992D01*
X41910Y-20977D01*
X41850Y-20962D01*
X41820Y-20947D01*
X41805Y-20932D01*
X41790Y-20902D01*
X41790Y-20872D01*
X41805Y-20842D01*
X41820Y-20827D01*
X41850Y-20812D01*
X41925Y-20812D01*
X41970Y-20827D01*
X42059Y-20812D02*
X42239Y-20812D01*
X42149Y-21127D02*
X42149Y-20812D01*
X40932Y-20827D02*
X40902Y-20812D01*
X40857Y-20812D01*
X40812Y-20827D01*
X40782Y-20857D01*
X40767Y-20887D01*
X40752Y-20947D01*
X40752Y-20992D01*
X40767Y-21052D01*
X40782Y-21082D01*
X40812Y-21112D01*
X40857Y-21127D01*
X40887Y-21127D01*
X40932Y-21112D01*
X40947Y-21097D01*
X40947Y-20992D01*
X40887Y-20992D01*
X41067Y-21112D02*
X41112Y-21127D01*
X41187Y-21127D01*
X41217Y-21112D01*
X41232Y-21097D01*
X41247Y-21067D01*
X41247Y-21037D01*
X41232Y-21007D01*
X41217Y-20992D01*
X41187Y-20977D01*
X41127Y-20962D01*
X41097Y-20947D01*
X41082Y-20932D01*
X41067Y-20902D01*
X41067Y-20872D01*
X41082Y-20842D01*
X41097Y-20827D01*
X41127Y-20812D01*
X41202Y-20812D01*
X41247Y-20827D01*
X39760Y-20827D02*
X39730Y-20812D01*
X39685Y-20812D01*
X39640Y-20827D01*
X39610Y-20857D01*
X39595Y-20887D01*
X39580Y-20947D01*
X39580Y-20992D01*
X39595Y-21052D01*
X39610Y-21082D01*
X39640Y-21112D01*
X39685Y-21127D01*
X39715Y-21127D01*
X39760Y-21112D01*
X39775Y-21097D01*
X39775Y-20992D01*
X39715Y-20992D01*
X39910Y-21127D02*
X39910Y-20812D01*
X40089Y-21127D01*
X40089Y-20812D01*
X40239Y-21127D02*
X40239Y-20812D01*
X40314Y-20812D01*
X40359Y-20827D01*
X40389Y-20857D01*
X40404Y-20887D01*
X40419Y-20947D01*
X40419Y-20992D01*
X40404Y-21052D01*
X40389Y-21082D01*
X40359Y-21112D01*
X40314Y-21127D01*
X40239Y-21127D01*
X38610Y-20812D02*
X38805Y-20812D01*
X38700Y-20932D01*
X38745Y-20932D01*
X38775Y-20947D01*
X38790Y-20962D01*
X38805Y-20992D01*
X38805Y-21067D01*
X38790Y-21097D01*
X38775Y-21112D01*
X38745Y-21127D01*
X38655Y-21127D01*
X38625Y-21112D01*
X38610Y-21097D01*
X38895Y-20812D02*
X39000Y-21127D01*
X39104Y-20812D01*
X39179Y-20812D02*
X39374Y-20812D01*
X39269Y-20932D01*
X39314Y-20932D01*
X39344Y-20947D01*
X39359Y-20962D01*
X39374Y-20992D01*
X39374Y-21067D01*
X39359Y-21097D01*
X39344Y-21112D01*
X39314Y-21127D01*
X39224Y-21127D01*
X39194Y-21112D01*
X39179Y-21097D01*
X37940Y-20812D02*
X37790Y-20812D01*
X37775Y-20962D01*
X37790Y-20947D01*
X37820Y-20932D01*
X37895Y-20932D01*
X37925Y-20947D01*
X37940Y-20962D01*
X37955Y-20992D01*
X37955Y-21067D01*
X37940Y-21097D01*
X37925Y-21112D01*
X37895Y-21127D01*
X37820Y-21127D01*
X37790Y-21112D01*
X37775Y-21097D01*
X38044Y-20812D02*
X38149Y-21127D01*
X38254Y-20812D01*
X25500Y-17000D02*
X25500Y-18000D01*
X29500Y-17000D02*
X25500Y-17000D01*
X31500Y-17000D02*
X31500Y-18000D01*
X29500Y-17000D02*
X31500Y-17000D01*
X29500Y-18000D02*
X29500Y-17000D01*
X43500Y-22000D02*
X43500Y-28000D01*
X55000Y-22000D02*
X43500Y-22000D01*
X55000Y-28000D02*
X55000Y-22000D01*
X43500Y-28000D02*
X55000Y-28000D01*
X43500Y-22000D02*
X43500Y-28000D01*
X36500Y-30000D02*
X36500Y-19000D01*
X43500Y-30000D02*
X36500Y-30000D01*
X43500Y-19000D02*
X43500Y-30000D01*
X36500Y-19000D02*
X43500Y-19000D01*
G54D12*
X46500Y-17404D02*
X46690Y-17404D01*
X46785Y-17452D01*
X46880Y-17547D01*
X46928Y-17738D01*
X46928Y-18071D01*
X46880Y-18261D01*
X46785Y-18357D01*
X46690Y-18404D01*
X46500Y-18404D01*
X46404Y-18357D01*
X46309Y-18261D01*
X46261Y-18071D01*
X46261Y-17738D01*
X46309Y-17547D01*
X46404Y-17452D01*
X46500Y-17404D01*
X47357Y-17738D02*
X47357Y-18738D01*
X47357Y-17785D02*
X47452Y-17738D01*
X47642Y-17738D01*
X47738Y-17785D01*
X47785Y-17833D01*
X47833Y-17928D01*
X47833Y-18214D01*
X47785Y-18309D01*
X47738Y-18357D01*
X47642Y-18404D01*
X47452Y-18404D01*
X47357Y-18357D01*
X48642Y-18357D02*
X48547Y-18404D01*
X48357Y-18404D01*
X48261Y-18357D01*
X48214Y-18261D01*
X48214Y-17880D01*
X48261Y-17785D01*
X48357Y-17738D01*
X48547Y-17738D01*
X48642Y-17785D01*
X48690Y-17880D01*
X48690Y-17976D01*
X48214Y-18071D01*
X49119Y-17738D02*
X49119Y-18404D01*
X49119Y-17833D02*
X49166Y-17785D01*
X49261Y-17738D01*
X49404Y-17738D01*
X49500Y-17785D01*
X49547Y-17880D01*
X49547Y-18404D01*
X49880Y-17738D02*
X50261Y-17738D01*
X50023Y-17404D02*
X50023Y-18261D01*
X50071Y-18357D01*
X50166Y-18404D01*
X50261Y-18404D01*
X50595Y-18404D02*
X50595Y-17738D01*
X50595Y-17404D02*
X50547Y-17452D01*
X50595Y-17500D01*
X50642Y-17452D01*
X50595Y-17404D01*
X50595Y-17500D01*
X51214Y-18404D02*
X51119Y-18357D01*
X51071Y-18261D01*
X51071Y-17404D01*
X51452Y-17738D02*
X51833Y-17738D01*
X51595Y-17404D02*
X51595Y-18261D01*
X51642Y-18357D01*
X51738Y-18404D01*
X51833Y-18404D01*
X47023Y-19904D02*
X47023Y-19238D01*
X47023Y-19428D02*
X47071Y-19333D01*
X47119Y-19285D01*
X47214Y-19238D01*
X47309Y-19238D01*
X48023Y-19857D02*
X47928Y-19904D01*
X47738Y-19904D01*
X47642Y-19857D01*
X47595Y-19761D01*
X47595Y-19380D01*
X47642Y-19285D01*
X47738Y-19238D01*
X47928Y-19238D01*
X48023Y-19285D01*
X48071Y-19380D01*
X48071Y-19476D01*
X47595Y-19571D01*
X48404Y-19238D02*
X48642Y-19904D01*
X48880Y-19238D01*
X49261Y-19809D02*
X49309Y-19857D01*
X49261Y-19904D01*
X49214Y-19857D01*
X49261Y-19809D01*
X49261Y-19904D01*
X51023Y-19904D02*
X50452Y-19904D01*
X50738Y-19904D02*
X50738Y-18904D01*
X50642Y-19047D01*
X50547Y-19142D01*
X50452Y-19190D01*
G54D13*
X26000Y-19500D02*
X26000Y-20500D01*
X26559Y-19500D02*
G75*
G03X26559Y-19500I-559J0D01*
G74*
G01*
X27000Y-19500D02*
X27000Y-20500D01*
X27559Y-19500D02*
G75*
G03X27559Y-19500I-559J0D01*
G74*
G01*
X28000Y-19500D02*
X28000Y-20500D01*
X28559Y-19500D02*
G75*
G03X28559Y-19500I-559J0D01*
G74*
G01*
G54D14*
X37500Y-19000D02*
X37500Y-20000D01*
X42500Y-20000D02*
X42500Y-19000D01*
X37500Y-19000D02*
X42500Y-19000D01*
X42500Y-20000D02*
X37500Y-20000D01*
X37500Y-29000D02*
X37500Y-30000D01*
X42500Y-30000D02*
X42500Y-29000D01*
X37500Y-29000D02*
X42500Y-29000D01*
X42500Y-30000D02*
X37500Y-30000D01*
X45500Y-22000D02*
X45500Y-26000D01*
X45500Y-26000D02*
X43500Y-26000D01*
X43500Y-26000D02*
X43500Y-22000D01*
X43500Y-22000D02*
X45500Y-22000D01*
X25500Y-19000D02*
X25500Y-18000D01*
X25500Y-18000D02*
X31500Y-18000D01*
X31500Y-18000D02*
X31500Y-19000D01*
X31500Y-19000D02*
X25500Y-19000D01*
X26500Y-19000D02*
X26500Y-18000D01*
G54D13*
X18500Y-22000D02*
X35500Y-22000D01*
X35500Y-22000D02*
X35500Y-27000D01*
X35500Y-27000D02*
X18500Y-27000D01*
X18500Y-27000D02*
X18500Y-22000D01*
X18500Y-25000D02*
X19000Y-25000D01*
X19000Y-25000D02*
X19000Y-24000D01*
X19000Y-24000D02*
X18500Y-24000D01*
X54900Y-18500D02*
G75*
G03X54900Y-18500I-900J0D01*
G74*
G01*
X54900Y-29000D02*
G75*
G03X54900Y-29000I-900J0D01*
G74*
G01*
X19400Y-18500D02*
G75*
G03X19400Y-18500I-900J0D01*
G74*
G01*
X19400Y-29000D02*
G75*
G03X19400Y-29000I-900J0D01*
G74*
G01*
G54D15*
X38704Y-24161D02*
X38704Y-23761D01*
X38838Y-24047D01*
X38971Y-23761D01*
X38971Y-24161D01*
X39161Y-24161D02*
X39161Y-23761D01*
X39295Y-24047D01*
X39428Y-23761D01*
X39428Y-24161D01*
X39600Y-24047D02*
X39790Y-24047D01*
X39561Y-24161D02*
X39695Y-23761D01*
X39828Y-24161D01*
X39923Y-23761D02*
X40190Y-23761D01*
X40019Y-24161D01*
X40304Y-23761D02*
X40552Y-23761D01*
X40419Y-23914D01*
X40476Y-23914D01*
X40514Y-23933D01*
X40533Y-23952D01*
X40552Y-23990D01*
X40552Y-24085D01*
X40533Y-24123D01*
X40514Y-24142D01*
X40476Y-24161D01*
X40361Y-24161D01*
X40323Y-24142D01*
X40304Y-24123D01*
X40895Y-23761D02*
X40819Y-23761D01*
X40780Y-23780D01*
X40761Y-23800D01*
X40723Y-23857D01*
X40704Y-23933D01*
X40704Y-24085D01*
X40723Y-24123D01*
X40742Y-24142D01*
X40780Y-24161D01*
X40857Y-24161D01*
X40895Y-24142D01*
X40914Y-24123D01*
X40933Y-24085D01*
X40933Y-23990D01*
X40914Y-23952D01*
X40895Y-23933D01*
X40857Y-23914D01*
X40780Y-23914D01*
X40742Y-23933D01*
X40723Y-23952D01*
X40704Y-23990D01*
X41314Y-24161D02*
X41085Y-24161D01*
X41200Y-24161D02*
X41200Y-23761D01*
X41161Y-23819D01*
X41123Y-23857D01*
X41085Y-23876D01*
X47871Y-24895D02*
X47871Y-25161D01*
X47871Y-24933D02*
X47890Y-24914D01*
X47928Y-24895D01*
X47985Y-24895D01*
X48023Y-24914D01*
X48042Y-24952D01*
X48042Y-25161D01*
X48461Y-25161D02*
X48328Y-24971D01*
X48233Y-25161D02*
X48233Y-24761D01*
X48385Y-24761D01*
X48423Y-24780D01*
X48442Y-24800D01*
X48461Y-24838D01*
X48461Y-24895D01*
X48442Y-24933D01*
X48423Y-24952D01*
X48385Y-24971D01*
X48233Y-24971D01*
X48766Y-24952D02*
X48633Y-24952D01*
X48633Y-25161D02*
X48633Y-24761D01*
X48823Y-24761D01*
X48957Y-24800D02*
X48976Y-24780D01*
X49014Y-24761D01*
X49109Y-24761D01*
X49147Y-24780D01*
X49166Y-24800D01*
X49185Y-24838D01*
X49185Y-24876D01*
X49166Y-24933D01*
X48938Y-25161D01*
X49185Y-25161D01*
X49528Y-24895D02*
X49528Y-25161D01*
X49433Y-24742D02*
X49338Y-25028D01*
X49585Y-25028D01*
X49928Y-25161D02*
X49738Y-25161D01*
X49738Y-24761D01*
X50138Y-24761D02*
X50176Y-24761D01*
X50214Y-24780D01*
X50233Y-24800D01*
X50252Y-24838D01*
X50271Y-24914D01*
X50271Y-25009D01*
X50252Y-25085D01*
X50233Y-25123D01*
X50214Y-25142D01*
X50176Y-25161D01*
X50138Y-25161D01*
X50100Y-25142D01*
X50080Y-25123D01*
X50061Y-25085D01*
X50042Y-25009D01*
X50042Y-24914D01*
X50061Y-24838D01*
X50080Y-24800D01*
X50100Y-24780D01*
X50138Y-24761D01*
X50652Y-25161D02*
X50423Y-25161D01*
X50538Y-25161D02*
X50538Y-24761D01*
X50500Y-24819D01*
X50461Y-24857D01*
X50423Y-24876D01*
X50823Y-25009D02*
X51128Y-25009D01*
X50976Y-25161D02*
X50976Y-24857D01*
G54D14*
X22699Y-24583D02*
X23033Y-24583D01*
X22633Y-24783D02*
X22866Y-24083D01*
X23099Y-24783D01*
X23333Y-24783D02*
X23333Y-24316D01*
X23333Y-24450D02*
X23366Y-24383D01*
X23399Y-24350D01*
X23466Y-24316D01*
X23533Y-24316D01*
X24066Y-24783D02*
X24066Y-24083D01*
X24066Y-24750D02*
X23999Y-24783D01*
X23866Y-24783D01*
X23799Y-24750D01*
X23766Y-24716D01*
X23733Y-24650D01*
X23733Y-24450D01*
X23766Y-24383D01*
X23799Y-24350D01*
X23866Y-24316D01*
X23999Y-24316D01*
X24066Y-24350D01*
X24699Y-24316D02*
X24699Y-24783D01*
X24399Y-24316D02*
X24399Y-24683D01*
X24433Y-24750D01*
X24499Y-24783D01*
X24599Y-24783D01*
X24666Y-24750D01*
X24699Y-24716D01*
X25033Y-24783D02*
X25033Y-24316D01*
X25033Y-24083D02*
X25000Y-24116D01*
X25033Y-24150D01*
X25066Y-24116D01*
X25033Y-24083D01*
X25033Y-24150D01*
X25366Y-24316D02*
X25366Y-24783D01*
X25366Y-24383D02*
X25400Y-24350D01*
X25466Y-24316D01*
X25566Y-24316D01*
X25633Y-24350D01*
X25666Y-24416D01*
X25666Y-24783D01*
X26100Y-24783D02*
X26033Y-24750D01*
X26000Y-24716D01*
X25966Y-24650D01*
X25966Y-24450D01*
X26000Y-24383D01*
X26033Y-24350D01*
X26100Y-24316D01*
X26200Y-24316D01*
X26266Y-24350D01*
X26300Y-24383D01*
X26333Y-24450D01*
X26333Y-24650D01*
X26300Y-24716D01*
X26266Y-24750D01*
X26200Y-24783D01*
X26100Y-24783D01*
X27166Y-24783D02*
X27166Y-24083D01*
X27566Y-24783D01*
X27566Y-24083D01*
X28200Y-24783D02*
X28200Y-24416D01*
X28166Y-24350D01*
X28100Y-24316D01*
X27966Y-24316D01*
X27900Y-24350D01*
X28200Y-24750D02*
X28133Y-24783D01*
X27966Y-24783D01*
X27900Y-24750D01*
X27866Y-24683D01*
X27866Y-24616D01*
X27900Y-24550D01*
X27966Y-24516D01*
X28133Y-24516D01*
X28200Y-24483D01*
X28533Y-24316D02*
X28533Y-24783D01*
X28533Y-24383D02*
X28566Y-24350D01*
X28633Y-24316D01*
X28733Y-24316D01*
X28800Y-24350D01*
X28833Y-24416D01*
X28833Y-24783D01*
X29266Y-24783D02*
X29200Y-24750D01*
X29166Y-24716D01*
X29133Y-24650D01*
X29133Y-24450D01*
X29166Y-24383D01*
X29200Y-24350D01*
X29266Y-24316D01*
X29366Y-24316D01*
X29433Y-24350D01*
X29466Y-24383D01*
X29500Y-24450D01*
X29500Y-24650D01*
X29466Y-24716D01*
X29433Y-24750D01*
X29366Y-24783D01*
X29266Y-24783D01*
X30233Y-24083D02*
X30466Y-24783D01*
X30700Y-24083D01*
X30866Y-24083D02*
X31300Y-24083D01*
X31066Y-24350D01*
X31166Y-24350D01*
X31233Y-24383D01*
X31266Y-24416D01*
X31300Y-24483D01*
X31300Y-24650D01*
X31266Y-24716D01*
X31233Y-24750D01*
X31166Y-24783D01*
X30966Y-24783D01*
X30900Y-24750D01*
X30866Y-24716D01*
M02*
